<svg width="20" height="19" viewBox="0 0 20 19" fill="none" xmlns="http://www.w3.org/2000/svg">
<g clip-path="url(#clip0_4_29)">
<path fill-rule="evenodd" clip-rule="evenodd" d="M10.3421 0C15.5308 0 19.7368 4.31212 19.7368 9.63236C19.7368 13.8872 17.0481 17.4967 13.3174 18.7716C12.8411 18.8665 12.672 18.5657 12.672 18.3092C12.672 17.9916 12.6833 16.9545 12.6833 15.6655C12.6833 14.7674 12.3826 14.1812 12.0454 13.8825C14.1376 13.6438 16.3359 12.8292 16.3359 9.12959C16.3359 8.07738 15.9714 7.21875 15.3683 6.5442C15.466 6.30088 15.7882 5.32113 15.2762 3.9946C15.2762 3.9946 14.4889 3.7365 12.6955 4.98224C11.9448 4.76898 11.1407 4.66167 10.3421 4.65792C9.54356 4.66167 8.74031 4.76898 7.99061 4.98224C6.19527 3.7365 5.40612 3.9946 5.40612 3.9946C4.89598 5.32113 5.21822 6.30088 5.31499 6.5442C4.71466 7.21875 4.34733 8.07738 4.34733 9.12959C4.34733 12.8198 6.541 13.6469 8.62757 13.8903C8.35888 14.1308 8.11556 14.555 8.031 15.1779C7.4955 15.4241 6.13514 15.85 5.29713 14.3779C5.29713 14.3779 4.80015 13.4524 3.85692 13.3847C3.85692 13.3847 2.94093 13.3726 3.79304 13.9701C3.79304 13.9701 4.40839 14.266 4.83585 15.3793C4.83585 15.3793 5.38733 17.0985 8.00094 16.516C8.00564 17.3211 8.0141 18.08 8.0141 18.3092C8.0141 18.5638 7.84123 18.8617 7.37243 18.7725C3.63896 17.4995 0.947372 13.8882 0.947372 9.63236C0.947372 4.31212 5.15434 0 10.3421 0Z" fill="#1B1D22"/>
</g>
<defs>
<clipPath id="clip0_4_29">
<rect x="0.947372" width="18.7895" height="18.7895" rx="9.39474" fill="white"/>
</clipPath>
</defs>
</svg>
