<svg width="19" height="19" viewBox="0 0 19 19" fill="none" xmlns="http://www.w3.org/2000/svg">
<g clip-path="url(#clip0_4_25)">
<path fill-rule="evenodd" clip-rule="evenodd" d="M9.60527 14.092C12.1995 14.092 14.3026 11.9889 14.3026 9.39463C14.3026 6.80035 12.1995 4.69727 9.60527 4.69727C7.01098 4.69727 4.9079 6.80035 4.9079 9.39463C4.9079 11.9889 7.01098 14.092 9.60527 14.092ZM9.60527 12.5262C11.3348 12.5262 12.7368 11.1241 12.7368 9.39463C12.7368 7.66511 11.3348 6.26305 9.60527 6.26305C7.87574 6.26305 6.47369 7.66511 6.47369 9.39463C6.47369 11.1241 7.87574 12.5262 9.60527 12.5262Z" fill="#1B1D22"/>
<path d="M14.3026 3.91455C13.8702 3.91455 13.5197 4.26507 13.5197 4.69745C13.5197 5.12982 13.8702 5.48034 14.3026 5.48034C14.735 5.48034 15.0855 5.12982 15.0855 4.69745C15.0855 4.26507 14.735 3.91455 14.3026 3.91455Z" fill="#1B1D22"/>
<path fill-rule="evenodd" clip-rule="evenodd" d="M1.50541 3.34777C0.993423 4.35259 0.993423 5.66798 0.993423 8.29875V10.4909C0.993423 13.1216 0.993423 14.437 1.50541 15.4418C1.95576 16.3257 2.67436 17.0443 3.55823 17.4946C4.56306 18.0066 5.87844 18.0066 8.50921 18.0066H10.7013C13.3321 18.0066 14.6475 18.0066 15.6523 17.4946C16.5362 17.0443 17.2548 16.3257 17.7051 15.4418C18.2171 14.437 18.2171 13.1216 18.2171 10.4909V8.29875C18.2171 5.66798 18.2171 4.35259 17.7051 3.34777C17.2548 2.4639 16.5362 1.74529 15.6523 1.29494C14.6475 0.782959 13.3321 0.782959 10.7013 0.782959H8.50921C5.87844 0.782959 4.56306 0.782959 3.55823 1.29494C2.67436 1.74529 1.95576 2.4639 1.50541 3.34777ZM10.7013 2.34875H8.50921C7.16799 2.34875 6.25624 2.34997 5.5515 2.40754C4.86503 2.46363 4.51398 2.56529 4.26909 2.69007C3.67984 2.99031 3.20077 3.46938 2.90053 4.05862C2.77575 4.30351 2.67409 4.65456 2.61801 5.34103C2.56043 6.04577 2.55921 6.95752 2.55921 8.29875V10.4909C2.55921 11.8321 2.56043 12.7438 2.61801 13.4486C2.67409 14.1351 2.77575 14.4861 2.90053 14.731C3.20077 15.3202 3.67984 15.7993 4.26909 16.0995C4.51398 16.2243 4.86503 16.326 5.5515 16.3821C6.25624 16.4396 7.16799 16.4409 8.50921 16.4409H10.7013C12.0426 16.4409 12.9543 16.4396 13.659 16.3821C14.3455 16.326 14.6966 16.2243 14.9415 16.0995C15.5307 15.7993 16.0097 15.3202 16.31 14.731C16.4348 14.4861 16.5365 14.1351 16.5925 13.4486C16.6501 12.7438 16.6513 11.8321 16.6513 10.4909V8.29875C16.6513 6.95752 16.6501 6.04577 16.5925 5.34103C16.5365 4.65456 16.4348 4.30351 16.31 4.05862C16.0097 3.46938 15.5307 2.99031 14.9415 2.69007C14.6966 2.56529 14.3455 2.46363 13.659 2.40754C12.9543 2.34997 12.0426 2.34875 10.7013 2.34875Z" fill="#1B1D22"/>
</g>
<defs>
<clipPath id="clip0_4_25">
<rect x="0.210526" width="18.7895" height="18.7895" rx="9.39474" fill="white"/>
</clipPath>
</defs>
</svg>
