<svg width="19" height="19" viewBox="0 0 19 19" fill="none" xmlns="http://www.w3.org/2000/svg">
<g clip-path="url(#clip0_4_15)">
<path d="M5.08882 6.26323C5.73739 6.26323 6.26316 5.73747 6.26316 5.08889C6.26316 4.44032 5.73739 3.91455 5.08882 3.91455C4.44024 3.91455 3.91447 4.44032 3.91447 5.08889C3.91447 5.73747 4.44024 6.26323 5.08882 6.26323Z" fill="#1B1D22"/>
<path d="M3.91447 7.82904C3.91447 7.39666 4.26499 7.04614 4.69737 7.04614H5.48026C5.91264 7.04614 6.26316 7.39665 6.26316 7.82904V14.0922C6.26316 14.5246 5.91264 14.8751 5.48026 14.8751H4.69737C4.26499 14.8751 3.91447 14.5246 3.91447 14.0922V7.82904Z" fill="#1B1D22"/>
<path d="M8.61184 14.8751H9.39474C9.82713 14.8751 10.1776 14.5246 10.1776 14.0922V10.5692C10.1776 9.39483 12.5263 8.61193 12.5263 10.1777V14.0925C12.5263 14.5249 12.8768 14.8751 13.3092 14.8751H14.0921C14.5245 14.8751 14.875 14.5246 14.875 14.0922V9.39483C14.875 7.82904 13.7007 7.04614 12.1349 7.04614C10.5691 7.04614 10.1776 8.22048 10.1776 8.22048V7.82904C10.1776 7.39665 9.82713 7.04614 9.39474 7.04614H8.61184C8.17945 7.04614 7.82895 7.39666 7.82895 7.82904V14.0922C7.82895 14.5246 8.17945 14.8751 8.61184 14.8751Z" fill="#1B1D22"/>
<path fill-rule="evenodd" clip-rule="evenodd" d="M15.6579 0.782959C16.9551 0.782959 18.0066 1.8345 18.0066 3.13164V15.658C18.0066 16.9551 16.9551 18.0066 15.6579 18.0066H3.13158C1.83444 18.0066 0.782898 16.9551 0.782898 15.658V3.13164C0.782898 1.8345 1.83444 0.782959 3.13158 0.782959H15.6579ZM15.6579 2.34875C16.0903 2.34875 16.4408 2.69927 16.4408 3.13164V15.658C16.4408 16.0904 16.0903 16.4409 15.6579 16.4409H3.13158C2.6992 16.4409 2.34869 16.0904 2.34869 15.658V3.13164C2.34869 2.69927 2.6992 2.34875 3.13158 2.34875H15.6579Z" fill="#1B1D22"/>
</g>
<defs>
<clipPath id="clip0_4_15">
<rect width="18.7895" height="18.7895" rx="9.39474" fill="white"/>
</clipPath>
</defs>
</svg>
